<svg width="34" height="34" viewBox="0 0 34 34" fill="none" xmlns="http://www.w3.org/2000/svg">
<g clip-path="url(#clip0_76_6)">
<path d="M33.6812 5.36553C33.4155 4.99365 32.9905 4.72803 32.4593 4.62178L21.6749 2.86865L26.2968 27.7843C26.403 28.3155 26.2968 28.8468 25.978 29.2718L25.9249 29.3249L25.8186 29.4311C25.4999 29.803 25.0749 30.0155 24.5968 30.1218L19.3374 31.0249V31.3436L27.4124 32.6718H27.7312C28.6343 32.6718 29.378 32.0874 29.5374 31.2374L33.9999 6.64053C34.053 6.21553 33.9468 5.7374 33.6812 5.36553Z" fill="white"/>
<path d="M9.08428 20.7188C9.24365 20.7188 9.34991 20.772 9.40303 20.9313L12.0593 25.872L16.628 14.4501C16.6812 14.2907 16.7874 14.2376 16.9999 14.2376C17.1593 14.2376 17.2655 14.2907 17.3187 14.4501L25.1812 27.7845L25.4999 27.6251L20.8249 2.39072C20.7187 1.80635 20.1874 1.38135 19.4968 1.38135H19.2843L1.11553 4.40947C0.743653 4.4626 0.424903 4.6751 0.212403 4.94072C0.0530284 5.25947 -0.0532216 5.57822 -9.66294e-05 5.84385L4.6749 31.0251L8.7124 20.9845C8.76553 20.8251 8.9249 20.7188 9.08428 20.7188ZM7.0124 11.1032C7.0124 9.24385 8.60615 7.70322 10.5718 7.70322C12.5374 7.70322 14.1312 9.24385 14.1312 11.1032C14.1312 12.9626 12.5374 14.5032 10.5718 14.5032C8.60615 14.5032 7.0124 13.0157 7.0124 11.1032Z" fill="white"/>
<path d="M24.9688 29.1656L25.1282 29.0594L17.1063 15.4594L12.4845 26.8812C12.4313 27.0406 12.3251 27.0938 12.1126 27.0938C11.9532 27.0938 11.847 27.0406 11.7938 26.8812L9.1376 21.9406L5.1001 32.0344L5.20635 32.0875C5.47197 32.3 5.7376 32.4062 6.05635 32.4062H6.26885L24.4376 29.325C24.6501 29.325 24.8095 29.2188 24.9688 29.1656ZM13.3345 11.1031C13.3345 9.66875 12.1126 8.5 10.572 8.5C9.03135 8.5 7.80947 9.66875 7.80947 11.1031C7.80947 12.5375 9.03135 13.7062 10.572 13.7062C12.0595 13.7594 13.3345 12.5906 13.3345 11.1031Z" fill="white"/>
</g>
<defs>
<clipPath id="clip0_76_6">
<rect width="34" height="34" fill="white"/>
</clipPath>
</defs>
</svg>
