<svg width="1000" height="1000" viewBox="0 0 1000 1000" fill="none" xmlns="http://www.w3.org/2000/svg">
<g clip-path="url(#clip0_105_7)">
<path d="M990.627 157.812C982.815 146.875 970.315 139.062 954.69 135.937L637.502 84.3751L773.44 817.184C776.565 832.809 773.44 848.434 764.065 860.934L762.502 862.497L759.377 865.622C750.002 876.559 737.502 882.809 723.44 885.934L568.752 912.497V921.872L806.252 960.934H815.627C842.19 960.934 864.065 943.746 868.752 918.747L1000 195.312C1001.56 182.812 998.44 168.75 990.627 157.812Z" fill="white"/>
<path d="M267.188 609.376C271.875 609.376 275 610.939 276.563 615.626L354.688 760.939L489.063 425.001C490.625 420.313 493.75 418.751 500 418.751C504.688 418.751 507.813 420.313 509.375 425.001L740.625 817.189L750 812.502L612.5 70.3124C609.375 53.1249 593.75 40.6248 573.438 40.6248H567.188L32.8127 129.688C21.8752 131.25 12.5002 137.5 6.2502 145.313C1.5627 154.688 -1.5623 164.063 0.000202434 171.875L137.5 912.502L256.25 617.189C257.813 612.501 262.5 609.376 267.188 609.376ZM206.25 326.563C206.25 271.875 253.125 226.563 310.938 226.563C368.75 226.563 415.625 271.875 415.625 326.563C415.625 381.251 368.75 426.563 310.938 426.563C253.125 426.563 206.25 382.813 206.25 326.563Z" fill="white"/>
<path d="M734.378 857.813L739.065 854.688L503.127 454.688L367.189 790.625C365.626 795.312 362.501 796.875 356.251 796.875C351.564 796.875 348.439 795.312 346.876 790.625L268.751 645.312L150 942.187L153.125 943.75C160.938 950 168.751 953.125 178.126 953.125H184.376L718.753 862.5C725.003 862.5 729.69 859.375 734.378 857.813ZM392.189 326.562C392.189 284.375 356.251 250 310.939 250C265.626 250 229.688 284.375 229.688 326.562C229.688 368.75 265.626 403.125 310.939 403.125C354.689 404.687 392.189 370.312 392.189 326.562Z" fill="white"/>
</g>
<defs>
<clipPath id="clip0_105_7">
<rect width="1000" height="1000" fill="white"/>
</clipPath>
</defs>
</svg>
