<svg width="48" height="48" viewBox="0 0 48 48" fill="none" xmlns="http://www.w3.org/2000/svg">
<path d="M42.6667 0H5.33333C2.4 0 0 2.4 0 5.33333V42.6667C0 45.6 2.4 48 5.33333 48H42.6667C45.6 48 48 45.6 48 42.6667V5.33333C48 2.4 45.6 0 42.6667 0ZM20.56 35.44C19.52 36.48 17.84 36.48 16.8 35.44L7.22667 25.8667C6.18667 24.8267 6.18667 23.1467 7.22667 22.1067C8.26667 21.0667 9.94667 21.0667 10.9867 22.1067L18.6667 29.7867L37.0133 11.44C38.0533 10.4 39.7333 10.4 40.7733 11.44C41.8133 12.48 41.8133 14.16 40.7733 15.2L20.56 35.44Z" fill="black"/>
</svg>
