<svg width="34" height="34" viewBox="0 0 34 34" fill="none" xmlns="http://www.w3.org/2000/svg">
<path opacity="0.4" d="M23.9283 0H29.6844C32.0683 0 33.9999 1.94795 33.9999 4.35194V10.1567C33.9999 12.5607 32.0683 14.5086 29.6844 14.5086H23.9283C21.5444 14.5086 19.6128 12.5607 19.6128 10.1567V4.35194C19.6128 1.94795 21.5444 0 23.9283 0Z" fill="white"/>
<path d="M10.0716 19.4914C12.4555 19.4914 14.3871 21.4393 14.3871 23.8433V29.6481C14.3871 32.0504 12.4555 34 10.0716 34H4.31549C1.93163 34 0 32.0504 0 29.6481V23.8433C0 21.4393 1.93163 19.4914 4.31549 19.4914H10.0716ZM29.6845 19.4914C32.0684 19.4914 34 21.4393 34 23.8433V29.6481C34 32.0504 32.0684 34 29.6845 34H23.9284C21.5445 34 19.6129 32.0504 19.6129 29.6481V23.8433C19.6129 21.4393 21.5445 19.4914 23.9284 19.4914H29.6845ZM10.0716 0C12.4555 0 14.3871 1.94795 14.3871 4.35194V10.1567C14.3871 12.5607 12.4555 14.5086 10.0716 14.5086H4.31549C1.93163 14.5086 0 12.5607 0 10.1567V4.35194C0 1.94795 1.93163 0 4.31549 0H10.0716Z" fill="white"/>
</svg>
