<svg width="1001" height="1000" viewBox="0 0 1001 1000" fill="none" xmlns="http://www.w3.org/2000/svg">
<path opacity="0.4" d="M703.874 0H873.173C943.287 0 1000.1 57.2928 1000.1 127.999V298.727C1000.1 369.433 943.287 426.726 873.173 426.726H703.874C633.76 426.726 576.947 369.433 576.947 298.727V127.999C576.947 57.2928 633.76 0 703.874 0Z" fill="white"/>
<path d="M296.225 573.276C366.338 573.276 423.151 630.568 423.151 701.274V872.002C423.151 942.66 366.338 1000 296.225 1000H126.926C56.8128 1000 0 942.66 0 872.002V701.274C0 630.568 56.8128 573.276 126.926 573.276H296.225ZM873.074 573.276C943.187 573.276 1000 630.568 1000 701.274V872.002C1000 942.66 943.187 1000 873.074 1000H703.776C633.662 1000 576.849 942.66 576.849 872.002V701.274C576.849 630.568 633.662 573.276 703.776 573.276H873.074ZM296.225 0C366.338 0 423.151 57.2926 423.151 127.998V298.726C423.151 369.432 366.338 426.724 296.225 426.724H126.926C56.8128 426.724 0 369.432 0 298.726V127.998C0 57.2926 56.8128 0 126.926 0H296.225Z" fill="white"/>
</svg>
