<svg width="622" height="1000" viewBox="0 0 622 1000" fill="none" xmlns="http://www.w3.org/2000/svg">
<path d="M308.75 0C202.5 0 123.75 32.5 73.75 82.5C23.75 132.5 6.25 195 0 242.5L125 258.75C130 227.5 140 196.25 163.75 172.5C187.5 148.75 225 125 308.75 125C391.25 125 436.25 145 461.25 167.5C486.25 190 496.25 217.5 496.25 250C496.25 353.75 453.75 382.5 391.25 437.5C328.75 492.5 246.25 572.5 246.25 718.75V750H371.25V718.75C371.25 615 410 586.25 472.5 531.25C535 476.25 621.25 396.25 621.25 250C621.25 190 600 122.5 547.5 73.75C493.75 25 413.75 0 308.75 0ZM246.25 875V1000H371.25V875H246.25Z" fill="white"/>
</svg>
