<svg width="1000" height="1000" viewBox="0 0 1000 1000" fill="none" xmlns="http://www.w3.org/2000/svg">
<path d="M116.211 732.422H176.758C184.266 732.413 191.464 729.427 196.774 724.117C202.083 718.808 205.069 711.61 205.078 704.102V643.555C205.069 636.046 202.083 628.848 196.774 623.539C191.464 618.23 184.266 615.243 176.758 615.234H116.211C108.703 615.243 101.504 618.23 96.1952 623.539C90.886 628.848 87.8994 636.046 87.8906 643.555V704.102C87.8994 711.61 90.886 718.808 96.1952 724.117C101.504 729.427 108.703 732.413 116.211 732.422ZM117.188 644.531H175.781V703.125H117.188V644.531ZM550.941 630.951C589.785 630.925 627.417 617.432 657.428 592.771C687.438 568.11 707.97 533.807 715.524 495.705C723.079 457.604 717.189 418.061 698.858 383.816C680.527 349.57 650.889 322.739 614.995 307.895C579.1 293.05 539.168 291.111 502.004 302.407C464.839 313.702 432.741 337.535 411.177 369.843C389.614 402.151 379.92 440.936 383.746 479.591C387.572 518.245 404.683 554.377 432.162 581.83C447.75 597.437 466.267 609.811 486.651 618.241C507.035 626.671 528.883 630.99 550.941 630.951ZM549.293 454.102H412.646C413.951 433.534 419.828 413.516 429.85 395.508H549.293C553.178 395.508 556.904 393.964 559.651 391.217C562.398 388.47 563.941 384.744 563.941 380.859C563.941 376.974 562.398 373.248 559.651 370.501C556.904 367.754 553.178 366.211 549.293 366.211H451.715C452.109 365.807 452.479 365.387 452.879 364.986C478.919 339.133 514.144 324.653 550.839 324.719C587.534 324.785 622.707 339.391 648.654 365.338C674.601 391.285 689.207 426.458 689.273 463.153C689.339 499.848 674.86 535.073 649.006 561.113C630.849 579.29 607.994 592.063 582.999 598.005C558.003 603.947 531.848 602.825 507.453 594.764C483.058 586.703 461.384 572.02 444.85 552.354C428.317 532.689 417.574 508.815 413.822 483.398H549.293C553.178 483.398 556.904 481.855 559.651 479.108C562.398 476.361 563.941 472.635 563.941 468.75C563.941 464.865 562.398 461.139 559.651 458.392C556.904 455.645 553.178 454.102 549.293 454.102ZM223.881 91.6543C220.984 91.6543 218.152 92.5134 215.743 94.123C213.334 95.7326 211.456 98.0204 210.347 100.697C209.239 103.374 208.949 106.319 209.514 109.16C210.079 112.002 211.474 114.612 213.523 116.661C215.571 118.709 218.182 120.104 221.023 120.67C223.865 121.235 226.81 120.945 229.487 119.836C232.163 118.727 234.451 116.85 236.061 114.441C237.67 112.032 238.529 109.2 238.529 106.303C238.529 102.418 236.986 98.6918 234.239 95.9447C231.492 93.1976 227.766 91.6543 223.881 91.6543ZM267.826 498.047C267.826 501.932 269.369 505.658 272.117 508.405C274.864 511.152 278.59 512.695 282.475 512.695H330.414C338.437 548.195 354.907 581.236 378.424 609.012C401.942 636.788 431.814 658.481 465.505 672.249C499.196 686.017 535.711 691.453 571.951 688.096C608.191 684.74 643.087 672.69 673.676 652.969L694.588 673.885C691.076 677.939 689.229 683.171 689.417 688.531C689.604 693.891 691.813 698.981 695.6 702.779L826.647 833.824C832.889 840.067 840.299 845.019 848.455 848.397C856.612 851.776 865.353 853.515 874.181 853.515C883.009 853.515 891.751 851.776 899.907 848.398C908.063 845.02 915.474 840.068 921.717 833.826C927.959 827.584 932.911 820.173 936.29 812.017C939.668 803.861 941.407 795.12 941.408 786.291C941.408 777.463 939.669 768.722 936.291 760.565C932.913 752.409 927.961 744.998 921.719 738.756L790.67 607.709C786.871 603.924 781.782 601.717 776.423 601.529C771.064 601.342 765.833 603.189 761.779 606.699L740.865 585.785C771.167 538.89 783.048 482.441 774.22 427.31C765.392 372.178 736.478 322.262 693.048 287.173C649.617 252.085 594.741 234.305 538.985 237.257C483.229 240.209 430.537 263.685 391.055 303.164C389.585 304.633 388.141 306.118 386.725 307.619H282.477C278.592 307.619 274.866 309.162 272.119 311.91C269.371 314.657 267.828 318.383 267.828 322.268C267.828 326.153 269.371 329.878 272.119 332.626C274.866 335.373 278.592 336.916 282.477 336.916H363.268C334.37 380.01 321.161 431.727 325.854 483.4H282.477C278.592 483.4 274.866 484.944 272.119 487.691C269.371 490.438 267.828 494.164 267.828 498.049L267.826 498.047ZM772.062 637.736L772.082 637.719L772.1 637.699L775.664 634.135L901 759.473C908.103 766.59 912.092 776.235 912.092 786.291C912.092 796.347 908.103 805.991 901 813.109C897.479 816.631 893.298 819.425 888.696 821.332C884.095 823.238 879.163 824.219 874.183 824.219C869.202 824.219 864.27 823.238 859.669 821.332C855.067 819.425 850.887 816.631 847.365 813.109L722.027 687.771L772.062 637.736ZM741.006 627.359L715.25 653.115L697.434 635.297C702.022 631.388 706.488 627.269 710.832 622.941C715.167 618.605 719.285 614.139 723.188 609.543L741.006 627.359ZM411.768 323.879C439.293 296.353 474.363 277.607 512.542 270.013C550.722 262.418 590.296 266.315 626.26 281.212C662.224 296.109 692.964 321.335 714.591 353.702C736.218 386.069 747.762 424.122 747.762 463.049C747.762 501.977 736.219 540.03 714.593 572.397C692.966 604.764 662.227 629.991 626.263 644.889C590.299 659.786 550.725 663.684 512.545 656.089C474.366 648.495 439.296 629.75 411.77 602.225C393.42 583.989 378.857 562.305 368.92 538.42C358.983 514.536 353.867 488.921 353.867 463.052C353.867 437.182 358.983 411.568 368.92 387.683C378.857 363.798 393.42 342.114 411.77 323.879H411.768ZM926.758 0H73.2422C53.8238 0.0217121 35.207 7.74525 21.4761 21.4761C7.74525 35.207 0.0217121 53.8238 0 73.2422L0 926.758C0.0217121 946.176 7.74525 964.793 21.4761 978.524C35.207 992.255 53.8238 999.978 73.2422 1000H926.758C946.176 999.978 964.793 992.255 978.524 978.524C992.255 964.793 999.978 946.176 1000 926.758V73.2422C999.978 53.8238 992.255 35.207 978.524 21.4761C964.793 7.74525 946.176 0.0217121 926.758 0ZM970.703 926.758C970.69 938.409 966.055 949.579 957.817 957.817C949.579 966.055 938.409 970.69 926.758 970.703H73.2422C61.5913 970.69 50.4214 966.055 42.183 957.817C33.9446 949.579 29.3103 938.409 29.2969 926.758V205.078H970.703V926.758ZM970.703 175.781H29.2969V73.2422C29.3103 61.5913 33.9446 50.4214 42.183 42.183C50.4214 33.9446 61.5913 29.3103 73.2422 29.2969H926.758C938.409 29.3103 949.579 33.9446 957.817 42.183C966.055 50.4214 970.69 61.5913 970.703 73.2422V175.781ZM165.287 91.6543C162.39 91.6543 159.558 92.5134 157.149 94.123C154.74 95.7326 152.862 98.0204 151.754 100.697C150.645 103.374 150.355 106.319 150.92 109.16C151.485 112.002 152.88 114.612 154.929 116.661C156.978 118.709 159.588 120.104 162.429 120.67C165.271 121.235 168.216 120.945 170.893 119.836C173.569 118.727 175.857 116.85 177.467 114.441C179.076 112.032 179.936 109.2 179.936 106.303C179.936 102.418 178.392 98.6918 175.645 95.9447C172.898 93.1976 169.172 91.6543 165.287 91.6543ZM116.211 556.641H176.758C184.266 556.632 191.464 553.645 196.774 548.336C202.083 543.027 205.069 535.829 205.078 528.32V467.773C205.069 460.265 202.083 453.067 196.774 447.758C191.464 442.448 184.266 439.462 176.758 439.453H116.211C108.703 439.462 101.504 442.448 96.1952 447.758C90.886 453.067 87.8994 460.265 87.8906 467.773V528.32C87.8994 535.829 90.886 543.027 96.1952 548.336C101.504 553.645 108.703 556.632 116.211 556.641ZM117.188 468.75H175.781V527.344H117.188V468.75ZM116.211 908.203H176.758C184.266 908.194 191.464 905.208 196.774 899.899C202.083 894.589 205.069 887.391 205.078 879.883V819.336C205.069 811.828 202.083 804.629 196.774 799.32C191.464 794.011 184.266 791.024 176.758 791.016H116.211C108.703 791.024 101.504 794.011 96.1952 799.32C90.886 804.629 87.8994 811.828 87.8906 819.336V879.883C87.8994 887.391 90.886 894.589 96.1952 899.899C101.504 905.208 108.703 908.194 116.211 908.203ZM117.188 820.312H175.781V878.906H117.188V820.312ZM116.211 380.859H176.758C184.266 380.851 191.464 377.864 196.774 372.555C202.083 367.246 205.069 360.047 205.078 352.539V291.992C205.069 284.484 202.083 277.286 196.774 271.976C191.464 266.667 184.266 263.681 176.758 263.672H116.211C108.703 263.681 101.504 266.667 96.1952 271.976C90.886 277.286 87.8994 284.484 87.8906 291.992V352.539C87.8994 360.047 90.886 367.246 96.1952 372.555C101.504 377.864 108.703 380.851 116.211 380.859ZM117.188 292.969H175.781V351.562H117.188V292.969ZM282.475 864.258H780.273C784.158 864.258 787.884 862.714 790.631 859.967C793.379 857.22 794.922 853.494 794.922 849.609C794.922 845.724 793.379 841.998 790.631 839.251C787.884 836.504 784.158 834.961 780.273 834.961H282.475C278.59 834.961 274.864 836.504 272.117 839.251C269.369 841.998 267.826 845.724 267.826 849.609C267.826 853.494 269.369 857.22 272.117 859.967C274.864 862.714 278.59 864.258 282.475 864.258ZM106.693 91.6543C103.796 91.6543 100.964 92.5134 98.5551 94.123C96.1462 95.7326 94.2687 98.0204 93.16 100.697C92.0513 103.374 91.7612 106.319 92.3264 109.16C92.8916 112.002 94.2867 114.612 96.3354 116.661C98.384 118.709 100.994 120.104 103.836 120.67C106.677 121.235 109.622 120.945 112.299 119.836C114.976 118.727 117.263 116.85 118.873 114.441C120.483 112.032 121.342 109.2 121.342 106.303C121.342 104.379 120.963 102.474 120.227 100.697C119.491 98.9198 118.412 97.305 117.051 95.9447C115.691 94.5845 114.076 93.5055 112.299 92.7693C110.522 92.0332 108.617 91.6543 106.693 91.6543ZM282.475 688.477H373.512C377.397 688.477 381.123 686.933 383.87 684.186C386.617 681.439 388.16 677.713 388.16 673.828C388.16 669.943 386.617 666.217 383.87 663.47C381.123 660.723 377.397 659.18 373.512 659.18H282.475C278.59 659.18 274.864 660.723 272.117 663.47C269.369 666.217 267.826 669.943 267.826 673.828C267.826 677.713 269.369 681.439 272.117 684.186C274.864 686.933 278.59 688.477 282.475 688.477Z" fill="white"/>
</svg>
