<svg width="1000" height="1000" viewBox="0 0 1000 1000" fill="none" xmlns="http://www.w3.org/2000/svg">
<path d="M733.255 644.891H686.916L670.492 629.062C740.881 546.99 777.248 435.02 757.305 316.015C729.736 153.043 593.65 22.8997 429.409 2.96783C181.288 -27.5162 -27.5323 181.182 2.96957 429.158C22.9131 593.302 153.133 729.308 316.201 756.861C435.275 776.793 547.311 740.446 629.431 670.099L645.269 686.513V732.825L894.563 981.973C918.613 1006.01 957.913 1006.01 981.963 981.973C1006.01 957.938 1006.01 918.66 981.963 894.625L733.255 644.891ZM381.31 644.891C235.253 644.891 117.352 527.058 117.352 381.087C117.352 235.115 235.253 117.283 381.31 117.283C527.367 117.283 645.269 235.115 645.269 381.087C645.269 527.058 527.367 644.891 381.31 644.891Z" fill="white"/>
</svg>
