<svg width="1000" height="1000" viewBox="0 0 1000 1000" fill="none" xmlns="http://www.w3.org/2000/svg">
<path d="M416.667 750C427.717 750 438.315 745.61 446.129 737.796C453.943 729.982 458.333 719.384 458.333 708.333V458.333C458.333 447.283 453.943 436.685 446.129 428.871C438.315 421.057 427.717 416.667 416.667 416.667C405.616 416.667 395.018 421.057 387.204 428.871C379.39 436.685 375 447.283 375 458.333V708.333C375 719.384 379.39 729.982 387.204 737.796C395.018 745.61 405.616 750 416.667 750ZM833.333 250H666.667V208.333C666.667 175.181 653.497 143.387 630.055 119.945C606.613 96.503 574.819 83.3334 541.667 83.3334H458.333C425.181 83.3334 393.387 96.503 369.945 119.945C346.503 143.387 333.333 175.181 333.333 208.333V250H166.667C155.616 250 145.018 254.39 137.204 262.204C129.39 270.018 125 280.616 125 291.667C125 302.717 129.39 313.315 137.204 321.129C145.018 328.943 155.616 333.333 166.667 333.333H208.333V791.667C208.333 824.819 221.503 856.613 244.945 880.055C268.387 903.497 300.181 916.667 333.333 916.667H666.667C699.819 916.667 731.613 903.497 755.055 880.055C778.497 856.613 791.667 824.819 791.667 791.667V333.333H833.333C844.384 333.333 854.982 328.943 862.796 321.129C870.61 313.315 875 302.717 875 291.667C875 280.616 870.61 270.018 862.796 262.204C854.982 254.39 844.384 250 833.333 250ZM416.667 208.333C416.667 197.283 421.057 186.685 428.871 178.871C436.685 171.057 447.283 166.667 458.333 166.667H541.667C552.717 166.667 563.315 171.057 571.129 178.871C578.943 186.685 583.333 197.283 583.333 208.333V250H416.667V208.333ZM708.333 791.667C708.333 802.717 703.944 813.315 696.129 821.129C688.315 828.943 677.717 833.333 666.667 833.333H333.333C322.283 833.333 311.685 828.943 303.871 821.129C296.057 813.315 291.667 802.717 291.667 791.667V333.333H708.333V791.667ZM583.333 750C594.384 750 604.982 745.61 612.796 737.796C620.61 729.982 625 719.384 625 708.333V458.333C625 447.283 620.61 436.685 612.796 428.871C604.982 421.057 594.384 416.667 583.333 416.667C572.283 416.667 561.685 421.057 553.871 428.871C546.057 436.685 541.667 447.283 541.667 458.333V708.333C541.667 719.384 546.057 729.982 553.871 737.796C561.685 745.61 572.283 750 583.333 750Z" fill="white"/>
</svg>
