<svg width="1000" height="1187" viewBox="0 0 1000 1187" fill="none" xmlns="http://www.w3.org/2000/svg">
<path d="M64.6921 986.75H77.1629L214.341 961.808C276.695 949.337 332.814 918.16 376.461 874.513L943.882 313.328C981.294 282.151 1000 232.268 1000 182.385C1000 132.502 981.294 88.8542 943.882 51.4419C875.292 -17.1473 756.82 -17.1473 681.995 51.4419L114.575 606.391C70.9275 650.039 39.7506 706.157 27.2798 768.511L2.33827 911.925C-3.89712 930.631 2.33828 955.573 21.0444 968.044C33.5152 980.514 45.986 986.75 64.6921 986.75ZM769.291 144.973C781.761 132.502 800.468 126.267 812.938 126.267C831.645 126.267 844.115 132.502 856.586 144.973C869.057 157.444 875.292 169.914 875.292 182.385C875.292 188.62 875.292 207.327 856.586 226.033L831.645 250.974L744.349 169.914L769.291 144.973ZM151.988 799.688C158.223 762.276 176.929 731.099 208.106 699.922L657.054 257.21L744.349 338.27L295.401 780.982C270.46 805.924 233.048 824.63 195.635 830.865L145.752 843.336L151.988 799.688ZM937.646 1061.57H64.6921C27.2798 1061.57 2.33827 1086.52 2.33827 1123.93C2.33827 1161.34 27.2798 1186.28 64.6921 1186.28H937.646C975.058 1186.28 1000 1161.34 1000 1123.93C1000 1086.52 975.058 1061.57 937.646 1061.57Z" fill="white"/>
</svg>
